<svg width="24" height="24" viewBox="0 0 24 24" fill="none" xmlns="http://www.w3.org/2000/svg">
<g clip-path="url(#clip0_146_1571)">
<path fill-rule="evenodd" clip-rule="evenodd" d="M2.90039 7.00002C2.90039 6.39251 3.39288 5.90002 4.00039 5.90002H20.0004C20.6079 5.90002 21.1004 6.39251 21.1004 7.00002C21.1004 7.60754 20.6079 8.10002 20.0004 8.10002H4.00039C3.39288 8.10002 2.90039 7.60754 2.90039 7.00002Z" fill="#99EE2D"/>
<path fill-rule="evenodd" clip-rule="evenodd" d="M6 8H18V20H6V8ZM10.0004 9.90002C10.6079 9.90002 11.1004 10.3925 11.1004 11V17C11.1004 17.6075 10.6079 18.1 10.0004 18.1C9.39288 18.1 8.90039 17.6075 8.90039 17V11C8.90039 10.3925 9.39288 9.90002 10.0004 9.90002ZM15.1004 11C15.1004 10.3925 14.6079 9.90002 14.0004 9.90002C13.3929 9.90002 12.9004 10.3925 12.9004 11V17C12.9004 17.6075 13.3929 18.1 14.0004 18.1C14.6079 18.1 15.1004 17.6075 15.1004 17V11Z" fill="#99EE2D"/>
<path fill-rule="evenodd" clip-rule="evenodd" d="M4.9091 5.90382C5.51452 5.85337 6.0462 6.30326 6.09665 6.90867L7.09665 18.9087C7.09918 18.9391 7.10045 18.9695 7.10045 19C7.10045 19.2387 7.19527 19.4676 7.36406 19.6364C7.53284 19.8052 7.76176 19.9 8.00045 19.9H16.0005C16.2391 19.9 16.4681 19.8052 16.6368 19.6364C16.8056 19.4676 16.9005 19.2387 16.9005 19C16.9005 18.9695 16.9017 18.9391 16.9043 18.9087L17.9043 6.90867C17.9547 6.30326 18.4864 5.85337 19.0918 5.90382C19.6972 5.95428 20.1471 6.48596 20.0967 7.09137L19.1 19.0508C19.0869 19.8546 18.7619 20.6227 18.1925 21.1921C17.6111 21.7734 16.8226 22.1 16.0005 22.1H8.00045C7.17828 22.1 6.38978 21.7734 5.80842 21.1921C5.23903 20.6227 4.91401 19.8546 4.90087 19.0508L3.90425 7.09137C3.8538 6.48596 4.30369 5.95428 4.9091 5.90382Z" fill="#99EE2D"/>
<path fill-rule="evenodd" clip-rule="evenodd" d="M10.1005 4.10002V7.00002C10.1005 7.60754 9.60797 8.10002 9.00045 8.10002C8.39294 8.10002 7.90045 7.60754 7.90045 7.00002V4.00002C7.90045 3.44307 8.1217 2.90893 8.51553 2.5151C8.90935 2.12127 9.4435 1.90002 10.0005 1.90002H14.0005C14.5574 1.90002 15.0916 2.12127 15.4854 2.5151C15.8792 2.90893 16.1005 3.44307 16.1005 4.00002V7.00002C16.1005 7.60754 15.608 8.10002 15.0005 8.10002C14.3929 8.10002 13.9005 7.60754 13.9005 7.00002V4.10002H10.1005Z" fill="#99EE2D"/>
</g>
<defs>
<clipPath id="clip0_146_1571">
<rect width="24" height="24" fill="white"/>
</clipPath>
</defs>
</svg>
